<?xml version="1.0" encoding="UTF-8" standalone="no"?>
<svg
   version="1.1"
   width="1072.3293"
   height="410.86932"
   viewBox="0 0 4052.9494 1552.9115"
   id="svg40"
   sodipodi:docname="Spectrum News (2023).svg"
   xml:space="preserve"
   inkscape:version="1.2 (dc2aedaf03, 2022-05-15)"
   xmlns:inkscape="http://www.inkscape.org/namespaces/inkscape"
   xmlns:sodipodi="http://sodipodi.sourceforge.net/DTD/sodipodi-0.dtd"
   xmlns="http://www.w3.org/2000/svg"
   xmlns:svg="http://www.w3.org/2000/svg"><defs
     id="defs44" /><sodipodi:namedview
     id="namedview42"
     pagecolor="#ffffff"
     bordercolor="#000000"
     borderopacity="0.25"
     inkscape:showpageshadow="2"
     inkscape:pageopacity="0.0"
     inkscape:pagecheckerboard="0"
     inkscape:deskcolor="#d1d1d1"
     showgrid="false"
     inkscape:zoom="1.5004828"
     inkscape:cx="519.49944"
     inkscape:cy="193.27112"
     inkscape:window-width="1920"
     inkscape:window-height="1009"
     inkscape:window-x="-8"
     inkscape:window-y="-8"
     inkscape:window-maximized="1"
     inkscape:current-layer="svg40" /><g
     id="g32"
     transform="matrix(34.016174,0,0,34.016174,-5248.8685,-5346.4558)"
     style="mix-blend-mode:normal;fill:#124792;fill-opacity:1;fill-rule:nonzero;stroke:none;stroke-linecap:butt;stroke-linejoin:miter;stroke-miterlimit:10;stroke-dasharray:none;stroke-dashoffset:0"><g
       stroke-width="6.30587"
       id="g12"
       style="fill:#124792;fill-opacity:1"><path
         d="m 181.87937,202.3058 v -22.76274 h 3.76746 l 11.10407,12.38943 v -12.38943 h 5.88252 v 22.76274 h -3.80051 l -11.07103,-12.35692 v 12.35692 z"
         id="path4"
         style="fill:#124792;fill-opacity:1" /><path
         d="m 206.86989,202.3058 v -22.76274 h 15.66468 v 5.04032 h -9.84826 v 3.73959 h 6.87395 v 4.94277 h -6.87395 v 3.99974 h 10.17874 v 5.04032 z"
         id="path6"
         style="fill:#124792;fill-opacity:1" /><path
         d="m 232.35292,202.30579 -7.46881,-22.76274 h 6.31214 l 3.60221,12.58455 5.02327,-11.57648 h 0.99144 l 5.15546,11.64151 3.63526,-12.64958 h 6.17995 l -7.46882,22.76274 h -3.89965 l -4.09793,-10.1782 -4.13099,10.1782 z"
         id="path8"
         style="fill:#124792;fill-opacity:1" /><path
         d="m 264.33161,202.82608 c -1.36598,0 -2.74297,-0.18427 -4.13099,-0.55281 -1.388,-0.39022 -2.5557,-0.89967 -3.50307,-1.52836 l 1.35496,-4.78018 c 0.74908,0.56365 1.68544,1.01891 2.80906,1.36577 1.12363,0.34686 2.23624,0.5203 3.33782,0.5203 1.05753,0 1.87271,-0.17343 2.44554,-0.5203 0.59485,-0.36854 0.89229,-0.88884 0.89229,-1.56088 0,-0.43357 -0.11016,-0.79127 -0.33047,-1.0731 -0.1983,-0.28182 -0.59487,-0.55281 -1.18972,-0.81296 -0.59487,-0.28182 -1.49816,-0.607 -2.70993,-0.97554 -4.03183,-1.25737 -6.04775,-3.50112 -6.04775,-6.73127 0,-1.4308 0.37455,-2.67734 1.12363,-3.73959 0.74908,-1.08393 1.79559,-1.91857 3.13954,-2.5039 1.36598,-0.60701 2.94125,-0.91051 4.72584,-0.91051 1.14565,0 2.30233,0.16259 3.47002,0.48777 1.18972,0.32519 2.20319,0.7696 3.04041,1.33324 l -0.95838,4.87773 c -1.89474,-1.17065 -3.74542,-1.75599 -5.55204,-1.75599 -0.9694,0 -1.72951,0.17343 -2.2803,0.5203 -0.5508,0.32519 -0.8262,0.79128 -0.8262,1.39828 0,0.54197 0.25337,0.98638 0.7601,1.33324 0.50673,0.34686 1.42106,0.70457 2.74297,1.0731 2.35742,0.67204 4.0759,1.58255 5.15546,2.73153 1.10159,1.14897 1.65239,2.63397 1.65239,4.45499 0,2.29796 -0.81517,4.0973 -2.44553,5.39803 -1.60833,1.30073 -3.83356,1.95109 -6.67567,1.95109 z"
         id="path10"
         style="fill:#124792;fill-opacity:1" /></g><g
       stroke-width="4.54903"
       id="g30"
       style="fill:#124792;fill-opacity:1"><path
         d="m 159.3761,174.22847 c -0.9523,0 -1.88873,-0.12528 -2.8093,-0.37586 -0.90469,-0.26623 -1.65859,-0.6186 -2.26172,-1.0571 l 0.49996,-1.78532 c 0.57138,0.4385 1.26181,0.79087 2.07125,1.0571 0.82533,0.25057 1.65066,0.37586 2.47599,0.37586 1.14277,0 2.03951,-0.26623 2.69024,-0.7987 0.66661,-0.53247 0.9999,-1.25286 0.9999,-2.16118 0,-0.81436 -0.29362,-1.4721 -0.88087,-1.97325 -0.57138,-0.50115 -1.58717,-0.95531 -3.04736,-1.36248 -1.50781,-0.4385 -2.61883,-1.01794 -3.33306,-1.73834 -0.71423,-0.72039 -1.07134,-1.62871 -1.07134,-2.72497 0,-0.89266 0.23014,-1.6757 0.69042,-2.34911 0.46028,-0.67341 1.10308,-1.19804 1.92841,-1.57391 0.8412,-0.39151 1.80144,-0.58728 2.88071,-0.58728 0.79359,0 1.57923,0.10962 2.35694,0.32888 0.77772,0.21925 1.46813,0.52464 2.07125,0.91615 l -0.40472,1.73834 c -0.58725,-0.37586 -1.23798,-0.66559 -1.9522,-0.86917 -0.69836,-0.21925 -1.38878,-0.32888 -2.07125,-0.32888 -1.04753,0 -1.88873,0.24274 -2.5236,0.72822 -0.61899,0.46982 -0.9285,1.11191 -0.9285,1.92627 0,0.67341 0.26982,1.22937 0.80946,1.66787 0.53963,0.4385 1.45226,0.83784 2.73787,1.19804 1.63478,0.45416 2.84103,1.09625 3.61873,1.92627 0.79359,0.81436 1.19038,1.82448 1.19038,3.03035 0,1.4721 -0.51583,2.63884 -1.54749,3.50017 -1.03166,0.86134 -2.42835,1.29202 -4.19011,1.29202 z"
         id="path14"
         style="fill:#124792;fill-opacity:1" /><path
         d="m 168.2743,173.92309 v -16.44377 h 4.95196 c 1.9046,0 3.3886,0.44633 4.45201,1.33899 1.0634,0.89266 1.5951,2.12986 1.5951,3.7116 0,1.56608 -0.53963,2.80327 -1.61892,3.7116 -1.0634,0.89266 -2.53947,1.33899 -4.4282,1.33899 h -2.88071 v 6.3426 z m 4.95196,-14.70543 h -2.88071 v 6.62449 h 2.88071 c 1.28561,0 2.26171,-0.28189 2.92832,-0.84569 0.68249,-0.56378 1.02373,-1.38597 1.02373,-2.46657 0,-1.09625 -0.34124,-1.91843 -1.02373,-2.46657 -0.66662,-0.56378 -1.64272,-0.84567 -2.92832,-0.84567 z"
         id="path16"
         style="fill:#124792;fill-opacity:1" /><path
         d="m 181.9395,173.92309 v -16.44377 h 10.30866 v 1.78532 h -8.23741 v 5.28549 h 6.09473 v 1.78532 h -6.09473 v 5.8023 h 8.47548 v 1.78532 z"
         id="path18"
         style="fill:#124792;fill-opacity:1" /><path
         d="m 202.77991,174.22847 c -1.6824,0 -3.1664,-0.35237 -4.45201,-1.0571 -1.26974,-0.72039 -2.26172,-1.71485 -2.97594,-2.98336 -0.69836,-1.26852 -1.04753,-2.74846 -1.04753,-4.43982 0,-1.25286 0.20634,-2.39609 0.61899,-3.4297 0.42854,-1.04927 1.01578,-1.95759 1.76176,-2.72497 0.76184,-0.76738 1.65859,-1.36248 2.69026,-1.78532 1.03166,-0.42284 2.15855,-0.63426 3.38067,-0.63426 0.9523,0 1.87286,0.13311 2.76167,0.39934 0.88881,0.26623 1.66653,0.64209 2.33313,1.12758 l -0.40472,1.8558 c -0.65073,-0.48548 -1.37291,-0.86134 -2.16648,-1.12758 -0.79359,-0.26623 -1.60304,-0.39935 -2.42837,-0.39935 -1.25386,0 -2.36488,0.28189 -3.33305,0.84569 -0.9523,0.56378 -1.69827,1.34682 -2.23791,2.34911 -0.53963,1.00228 -0.80946,2.16118 -0.80946,3.47668 0,1.3155 0.26188,2.4744 0.78565,3.47668 0.53963,1.00228 1.29354,1.78532 2.26172,2.34911 0.96817,0.56378 2.08712,0.84569 3.35686,0.84569 0.85707,0 1.69827,-0.13312 2.5236,-0.39935 0.8412,-0.28189 1.57923,-0.66558 2.21409,-1.15107 l 0.40472,1.8558 c -0.66662,0.48548 -1.46019,0.86917 -2.38075,1.15107 -0.92056,0.26623 -1.87286,0.39934 -2.8569,0.39934 z"
         id="path20"
         style="fill:#124792;fill-opacity:1" /><path
         d="m 214.95437,173.92309 v -14.65844 h -5.40431 v -1.78532 h 12.90368 v 1.78532 h -5.40431 v 14.65844 z"
         id="path22"
         style="fill:#124792;fill-opacity:1" /><path
         d="m 224.89091,173.92309 v -16.44377 h 4.99958 c 1.9046,0 3.3886,0.4385 4.45201,1.3155 1.07927,0.86134 1.61892,2.05939 1.61892,3.59414 0,1.33116 -0.42061,2.41175 -1.26181,3.24177 -0.8412,0.83002 -2.02364,1.33899 -3.54732,1.52692 l 6.3328,6.76544 h -2.66644 l -6.14234,-6.69496 h -1.71414 v 6.69496 z m 4.99958,-14.70543 h -2.92832 v 6.27212 h 2.92832 c 1.30148,0 2.28552,-0.26623 2.95214,-0.7987 0.68249,-0.53247 1.02373,-1.29983 1.02373,-2.30213 0,-2.1142 -1.32529,-3.1713 -3.97586,-3.1713 z"
         id="path24"
         style="fill:#124792;fill-opacity:1" /><path
         d="m 245.77896,174.22847 c -1.36496,0 -2.55534,-0.28189 -3.57113,-0.84567 -0.99991,-0.56378 -1.77763,-1.36248 -2.33313,-2.39609 -0.55551,-1.03361 -0.83326,-2.24731 -0.83326,-3.64112 v -9.86626 h 2.09507 v 9.86626 c 0,1.56608 0.41266,2.79544 1.23799,3.6881 0.82533,0.877 1.96015,1.3155 3.40447,1.3155 1.41258,0 2.53153,-0.44633 3.35686,-1.33899 0.82533,-0.89266 1.23799,-2.1142 1.23799,-3.66461 v -9.86626 h 2.09507 v 9.86626 c 0,1.37814 -0.27775,2.58402 -0.83326,3.61762 -0.55551,1.03361 -1.34116,1.84014 -2.35695,2.41958 -0.99991,0.56378 -2.16649,0.84567 -3.49971,0.84567 z"
         id="path26"
         style="fill:#124792;fill-opacity:1" /><path
         d="m 255.69171,173.92309 0.80946,-16.44377 h 1.30941 l 6.45184,10.59449 6.38041,-10.59449 h 1.30941 l 0.80946,16.44377 h -2.02364 l -0.54758,-12.26235 -5.68999,9.37295 h -0.59519 l -5.66619,-9.30247 -0.52376,12.19189 z"
         id="path28"
         style="fill:#124792;fill-opacity:1" /></g></g></svg>
