<?xml version="1.0" encoding="UTF-8" standalone="no"?>
<svg xmlns:rdf="http://www.w3.org/1999/02/22-rdf-syntax-ns#" xmlns="http://www.w3.org/2000/svg" height="145.78975" width="301.69163" version="1.1" xmlns:cc="http://creativecommons.org/ns#" xmlns:dc="http://purl.org/dc/elements/1.1/" viewBox="0 0 301.69163 145.78975"><path d="M113.62488,61.73205h12.77873L113.883,100.97179H97.87734L90.26173,73.34907l-8.00284,27.62272H66.51137L53.99079,61.732H66.76952l7.74469,27.62272L82.25889,61.732H98.26458l7.74469,27.62272ZM56.83051,16.68379c.38723-1.41986,1.678-3.356,2.19433-4.905.38723-1.29078.25816-2.19433-.25816-2.45248A8.622,8.622,0,0,0,41.72837,6.87385,8.74237,8.74237,0,0,0,48.44044,17.071a9.76935,9.76935,0,0,0,1.93617.12908c.25815.12908.64539.25816.77446.51631a2.68568,2.68568,0,0,1,.25816,2.45248,34.72675,34.72675,0,0,1-4.1305,4.7759c-2.06525,2.19432-2.71064,2.45248-4.51773,4.51773a5.62684,5.62684,0,0,0-1.16171,2.3234,9.1744,9.1744,0,0,0-2.83972,2.58157,38.1425,38.1425,0,0,0-2.71064,4.77589s-1.29078.77447-2.06525,1.29078a20.47056,20.47056,0,0,0-2.19433,2.3234,2.2612,2.2612,0,0,1,1.16171-2.19432c.51631-.38724,1.29078-2.32341,1.41986-4.64682A3.373,3.373,0,0,0,36.178,32.94763a3.41727,3.41727,0,0,0-3.356-3.356,3.17049,3.17049,0,0,0-1.93617.64539,7.5673,7.5673,0,0,0-4.905-.51631c-.64539.12907-1.29078.38723-1.41986.90354a3.33986,3.33986,0,0,0-1.80709,1.54894,4.15479,4.15479,0,0,0-.64539,2.58156c-.12908.38724-1.54894,1.16171-.90355,4.1305.25816,1.16171.12908,2.06525.25816,2.45249.12907.51631.25815.77446.77446.90355.25816.12907.64539.25815.90355.38723.51631.12907.64539.25816.77447.77446v.90355c0,.12908-.12908.38724-.25816.38724l-3.227.12907a5.2768,5.2768,0,0,0-2.9688.51632,8.50923,8.50923,0,0,0-3.227.90354,8.4292,8.4292,0,0,0-3.356,4.64681,8.66457,8.66457,0,0,1-.77447,1.93618c-.25815.38723-1.41985,1.1617-2.3234,2.06524a27.398,27.398,0,0,1-1.29078-5.93759v-.38723a3.27438,3.27438,0,0,1,.25815-1.54894,3.95942,3.95942,0,0,0,.77447-2.71064,11.29721,11.29721,0,0,1,.25816-2.06524c.12908-.51632,0-.90355.25815-1.29079a2.46445,2.46445,0,0,0,.38724-1.03262,3.40587,3.40587,0,0,0-.90355.12908c-.64539.25816-.77447,1.03262-1.03262,1.54893-.12908.38724-.12908.90355-.38724,1.03263a.79507.79507,0,0,1-.90354-.12908c-.25816-.38723-.38724-.64539-.64539-1.03262s-.90355-2.83972-1.54894-4.25958c-.25816-.25816-.38724-.64539-.77447-.77447-.25816-.12908-.64539.12908-.51631.38724a16.34861,16.34861,0,0,1,.77447,2.3234,13.6059,13.6059,0,0,0-.90355-1.41986c-.25816-.25816-.51631-.64539-.90355-.77447a.47148.47148,0,0,0-.64539.25816c-.12908.12908.12908.38723.12908.51631A6.76862,6.76862,0,0,1,1.456,40.04693a2.31516,2.31516,0,0,0-.90355-.64539.7761.7761,0,0,0-.51631.12907.77607.77607,0,0,0,.12908.51632l1.1617,1.54893c.25816.38724.51632.90355.77447,1.29079,0-.25816-.38723-.25816-.38723.12907.25815.51632.90354.90355,1.03262,1.54894a9.31023,9.31023,0,0,1,.25816,4.25958c-.12908,1.54893.12908,6.06667-.25816,8.00284-.64539,3.09788-.51631,4.25958.25816,7.74469C3.39217,66.637,5.45742,66.637,7.00636,65.60439c2.58156-1.678,5.2922-5.55036,5.93759-6.32483.51631-.64539.90355-1.678,1.29078-1.54894.90355,1.03263,1.54894,5.2922.77447,9.03547-.12908.77447-.51631,2.19433-.51631,2.58156.12908.38723.51631.64539.51631.77447-.12908,2.83972-2.06525,3.356-2.71064,6.32483a18.60179,18.60179,0,0,0,.12908,8.00283,28.83557,28.83557,0,0,0,3.09787,8.13193A13.74142,13.74142,0,0,1,16.94537,96.325l1.03263.12907a41.57275,41.57275,0,0,0,4.77589,11.22979c9.4227,14.19859,12.77873,20.52342,13.42412,21.94328.64539,1.29078-.25816,1.29078-.25816,1.93617s.51632,1.29078,2.06525,2.32341c1.678,1.03263,2.9688,4.64681,3.61419,6.583s1.93617,5.67944,4.77589,5.2922,2.83972-4.13049,2.32341-6.4539c-.64539-2.32341-2.9688-3.48511-3.356-5.034-.38723-1.41986-1.93617-3.87234-2.06525-6.84114a6.33374,6.33374,0,0,1,.12908-1.41986c.12907-1.678,1.03262-3.87234,1.03262-5.16312-.12908-1.29079-3.48511-3.6142-4.25958-5.03405s-1.29078-4.38866-1.54893-4.51774a2.76533,2.76533,0,0,0-.77447-.12907s-.51631-9.80994-1.8071-13.81136a17.24313,17.24313,0,0,0-3.61418-5.55036,43.45555,43.45555,0,0,0,2.71064-7.87376c1.80709-6.84114-.90355-10.06809-1.678-13.94043-.64539-3.09788.12908-7.74469,2.06526-12.26242a35.41446,35.41446,0,0,0,2.3234-8.64824c0-1.03262.64539-1.80709,1.678-3.227a15.57516,15.57516,0,0,0,2.32341-4.25958c.38723-1.29078,1.41986-2.58156,2.96879-4.77589A12.05253,12.05253,0,0,0,45.988,34.62564a56.28906,56.28906,0,0,0,4.905-5.67944c2.45248-3.227,2.83972-5.16312,2.96879-5.80852s1.16171-1.41985,1.678-2.58156A14.9435,14.9435,0,0,0,56.83051,16.68379Zm185.098,73.44544c0,7.74469-6.45391,10.84257-16.26385,10.84257H191.20081V61.73205h31.10783c10.71349,0,16.65107,2.83972,16.65107,10.32624a8.322,8.322,0,0,1-5.67943,8.261.25816.25816,0,0,0,0,.51632c4.905.64539,8.64823,3.74326,8.64823,9.29362ZM202.81782,77.22142h19.4908c3.356,0,4.64682-1.03262,4.64682-2.58156,0-1.93617-1.41987-2.83972-4.64682-2.83972H202.81784v5.42128ZM229.92422,88.064c0-1.54894-1.16169-2.58157-4.25958-2.58157h-22.8468V90.9037h22.84682c3.22695.12908,4.25958-1.03263,4.25958-2.83971Zm71.76741,12.90781H287.75119l-4.51773-8.51916H261.29018l-4.38864,8.51916H243.09018L264.259,61.73205h15.87661ZM278.32849,83.02994l-6.19575-11.74611-6.06667,11.74611ZM169.7738,88.32214l-22.20143-26.461h-16.522v39.23974h11.617V74.51078l22.07235,26.461h16.522V61.73205H169.51563V88.32214Z" fill="#fa4d00"/></svg>